<svg width="68" height="67" viewBox="0 0 68 67" fill="none" xmlns="http://www.w3.org/2000/svg">
<rect width="68" height="67" fill="#F2F2F2"/>
<rect width="61" height="63" rx="11" fill="#7159C1"/>
<rect x="8" y="8" width="45" height="48" fill="#F2F2F2"/>
<rect x="17" y="14" width="27" height="7" fill="#7159C1"/>
<rect x="45" y="21" width="23" height="44" fill="#F2F2F2"/>
<g filter="url(#filter0_d)">
<path d="M60.0469 48.4082C60.0469 47.3301 59.666 46.4219 58.9043 45.6836C58.1543 44.9453 56.8828 44.2773 55.0898 43.6797C52.5938 42.918 50.7715 41.9277 49.623 40.709C48.4863 39.4785 47.918 37.9199 47.918 36.0332C47.918 34.1113 48.4746 32.5352 49.5879 31.3047C50.7129 30.0742 52.2539 29.3418 54.2109 29.1074V25.2578H56.8301V29.125C58.7988 29.3945 60.3281 30.2207 61.418 31.6035C62.5195 32.9863 63.0703 34.8789 63.0703 37.2812H59.8359C59.8359 35.6289 59.4434 34.3164 58.6582 33.3438C57.873 32.3711 56.8125 31.8848 55.4766 31.8848C54.082 31.8848 53.0156 32.248 52.2773 32.9746C51.5391 33.6895 51.1699 34.6914 51.1699 35.9805C51.1699 37.1758 51.5566 38.1309 52.3301 38.8457C53.1152 39.5488 54.3984 40.1934 56.1797 40.7793C57.9727 41.3535 59.3672 41.9922 60.3633 42.6953C61.3711 43.3867 62.1094 44.1953 62.5781 45.1211C63.0586 46.0469 63.2988 47.1309 63.2988 48.373C63.2988 50.3535 62.7012 51.9473 61.5059 53.1543C60.3223 54.3613 58.6582 55.0762 56.5137 55.2988V58.6562H53.9121V55.2988C51.7324 55.0996 50.0215 54.3262 48.7793 52.9785C47.5488 51.6191 46.9336 49.7793 46.9336 47.459H50.1855C50.1855 49.0879 50.6133 50.3418 51.4688 51.2207C52.3242 52.0996 53.5371 52.5391 55.1074 52.5391C56.6426 52.5391 57.8496 52.1699 58.7285 51.4316C59.6074 50.6934 60.0469 49.6855 60.0469 48.4082Z" fill="#7159C1"/>
</g>
<defs>
<filter id="filter0_d" x="42.9336" y="25.2578" width="24.3652" height="41.3984" filterUnits="userSpaceOnUse" color-interpolation-filters="sRGB">
<feFlood flood-opacity="0" result="BackgroundImageFix"/>
<feColorMatrix in="SourceAlpha" type="matrix" values="0 0 0 0 0 0 0 0 0 0 0 0 0 0 0 0 0 0 127 0"/>
<feOffset dy="4"/>
<feGaussianBlur stdDeviation="2"/>
<feColorMatrix type="matrix" values="0 0 0 0 0 0 0 0 0 0 0 0 0 0 0 0 0 0 0.25 0"/>
<feBlend mode="normal" in2="BackgroundImageFix" result="effect1_dropShadow"/>
<feBlend mode="normal" in="SourceGraphic" in2="effect1_dropShadow" result="shape"/>
</filter>
</defs>
</svg>
